<svg width="148" height="297" viewBox="0 0 148 297" fill="none" xmlns="http://www.w3.org/2000/svg">
<path fill-rule="evenodd" clip-rule="evenodd" d="M74.3238 -3.17964e-06C36.313 -4.84114e-06 6.01281e-05 20.7508 5.84641e-05 58.8197C5.77593e-05 74.9421 6.67608 86.5904 15.4359 95.0373C18.8134 98.2867 22.3618 101.232 25.8858 104.157C34.1994 111.057 42.3767 117.844 47.8513 128.246L45.4587 129.635C36.2358 113.898 19.3335 104.603 1.54365 100.437L1.50505 100.437L1.54365 235.086C26.2796 235.086 43.2977 214.567 43.2977 194.163C43.2977 191.193 43.1433 186.487 42.4101 183.132L44.9956 182.36C45.4587 184.405 45.9218 187.452 45.9218 192.003C45.9218 229.725 13.3521 244.15 1.54364 245.307L1.54364 296.066L1.58222 296.066L145.29 296.066L145.29 240.602C124.066 238.75 101.684 227.025 89.6825 202.07L92.1909 200.566C92.1909 200.566 99.1756 218.115 118.393 218.115C132.826 218.115 145.522 207.778 145.522 189.535L145.522 114.708L123.912 115.248C101.491 115.248 94.3519 126.356 94.3519 137.426C94.3519 140.897 95.0465 144.87 96.4357 148.689L93.5801 149.46C93.117 148.38 91.6892 142.942 91.6892 138.043C91.6892 130.715 93.8888 118.179 113.029 109.231C131.784 100.437 147.065 85.9733 147.065 58.8198C147.065 20.7894 112.721 -1.50126e-06 74.3238 -3.17964e-06ZM79.1089 45.667L79.1089 31.8203L72.5486 30.9717L72.5486 31.3574C72.8034 31.4488 73.0372 31.5302 73.2537 31.6057C74.3161 31.9759 74.9626 32.2012 75.6358 32.7459C76.4462 33.4016 77.025 34.2117 77.3724 35.1374C77.7197 36.1016 77.9126 37.2201 77.9126 38.5315L77.9126 40.9999L60.007 30.3545L59.6597 30.3545L59.6597 45.4741L67.8407 46.477L67.8407 46.0913C67.4373 45.9761 67.0855 45.8884 66.7659 45.8088C66.0153 45.6217 65.4416 45.4787 64.7921 45.127C63.8659 44.6256 63.0942 44.047 62.5153 43.3528C61.9365 42.6971 61.512 41.8871 61.2419 40.9999C60.9717 40.1128 60.856 39.0714 60.856 37.9143L60.856 35.0215L78.7616 45.667L79.1089 45.667ZM59.2793 57.5098C59.2793 55.7356 59.7038 54.1928 60.5914 52.8814C61.4404 51.5314 62.6752 50.5286 64.2574 49.7572C65.8396 49.0243 67.6533 48.6387 69.7372 48.6387C71.6667 48.6387 73.4032 48.9857 74.9468 49.68C76.4904 50.3742 77.6866 51.3384 78.5356 52.5341C79.3846 53.7684 79.8477 55.1185 79.8477 56.6998C79.8477 58.7441 79.2302 60.4025 77.9568 61.6368C76.6833 62.871 75.024 63.4883 72.9401 63.4883L72.0525 63.4883L72.0525 51.4929L72.0139 51.4928C70.1616 51.4928 68.5409 51.8014 67.0745 52.4571C65.6081 53.1128 64.4504 53.9999 63.64 55.1184C62.8296 56.2755 62.4051 57.5484 62.4051 59.0141C62.4051 60.7883 62.984 62.2538 64.1802 63.3338L64.0645 63.5267C62.4437 62.871 61.286 62.0224 60.4756 61.0196C59.6653 60.0553 59.2793 58.8598 59.2793 57.5098ZM76.7991 52.997C75.7336 52.2548 74.5871 51.7016 72.998 51.5407L73.1331 56.1983C73.1331 58.5897 73.9434 59.8626 75.3713 60.1326C76.4518 60.3254 77.185 59.9397 77.7638 59.3611C78.4199 58.6669 78.69 57.7026 78.69 56.6226C78.69 55.1184 78.0725 53.9227 76.7991 52.997ZM60.0009 66.3394L59.6536 66.3394L59.5764 66.3394L59.5764 73.4749L59.9237 73.4749C60.1553 72.6264 60.464 72.0478 60.8885 71.7392C61.313 71.4307 62.0076 71.2763 62.9337 71.2763L74.2019 71.2763C75.321 71.7777 76.0928 72.202 76.4401 72.6263C76.8646 73.012 77.0576 73.4749 77.0576 74.0148C77.0576 74.2848 77.019 74.5549 76.9032 74.8249C76.7874 75.0949 76.7488 75.3648 76.7488 75.7119C76.7488 76.1362 76.9032 76.4833 77.1347 76.7148C77.4049 76.9848 77.7136 77.1005 78.1381 77.1005C78.6012 77.1005 78.9871 76.9461 79.2186 76.6376C79.4887 76.329 79.6045 75.9048 79.6045 75.4034C79.6045 74.5163 79.1414 73.6678 78.2153 72.8963C77.5203 72.2885 76.7601 71.6807 75.7554 71.2358L79.5659 71.0835L78.9099 66.3008L78.5626 66.3008C78.2924 66.8408 77.9837 67.1878 77.5592 67.3807C77.1733 67.5735 76.4787 67.6894 75.5912 67.6894L62.2005 67.6894C61.5059 67.6894 61.0043 67.5735 60.6569 67.3807C60.3096 67.1878 60.1167 66.8408 60.0009 66.3394ZM59.2793 86.7071C59.2793 84.9328 59.7038 83.39 60.5914 82.04C61.479 80.6901 62.6752 79.6102 64.2574 78.8387C65.801 78.0673 67.5761 77.6816 69.5828 77.6816C71.5895 77.6816 73.3646 78.0673 74.9082 78.8387C76.4518 79.6102 77.6481 80.6515 78.5356 82.04C79.3846 83.39 79.8477 84.9714 79.8477 86.7071C79.8477 88.4813 79.4232 90.0628 78.5356 91.4127C77.6866 92.7627 76.4518 93.804 74.9082 94.5754C73.3646 95.3468 71.5895 95.7325 69.5828 95.7325C67.5761 95.7325 65.801 95.3468 64.2574 94.5754C62.7138 93.804 61.479 92.7627 60.5914 91.4127C59.7038 90.0628 59.2793 88.5199 59.2793 86.7071ZM78.6128 86.7071C78.6128 85.1257 77.5709 83.8914 75.9115 83.0043C74.2522 82.1172 72.5542 81.6543 69.5828 81.6543C66.65 81.6543 64.8749 82.1172 63.1769 83.0043C61.479 83.8914 60.5142 85.1257 60.5142 86.7071C60.5142 88.2884 61.5176 89.5227 63.1769 90.4098C64.8749 91.297 66.6114 91.7598 69.5828 91.7598C72.5542 91.7598 74.2522 91.297 75.9115 90.4098C77.5323 89.5227 78.6128 88.2884 78.6128 86.7071ZM60.5914 163.614C59.7038 164.964 59.2793 166.507 59.2793 168.281C59.2793 170.055 59.7038 171.636 60.5914 172.986C61.479 174.336 62.7138 175.378 64.2574 176.149C65.801 176.921 67.5761 177.306 69.5828 177.306C71.5895 177.306 73.3646 176.921 74.9082 176.149C76.4518 175.378 77.6866 174.336 78.5356 172.986C79.4232 171.636 79.8477 170.055 79.8477 168.281C79.8477 166.545 79.3846 164.964 78.5356 163.614C77.6481 162.225 76.4518 161.184 74.9082 160.412C73.3646 159.641 71.5895 159.255 69.5828 159.255C67.5761 159.255 65.801 159.641 64.2574 160.412C62.6752 161.184 61.479 162.264 60.5914 163.614ZM75.9115 164.578C77.5709 165.465 78.6128 166.699 78.6128 168.281C78.6128 169.862 77.5323 171.096 75.9115 171.984C74.2522 172.871 72.5542 173.334 69.5828 173.334C66.6114 173.334 64.8749 172.871 63.1769 171.984C61.5176 171.096 60.5142 169.862 60.5142 168.281C60.5142 166.699 61.479 165.465 63.1769 164.578C64.8749 163.691 66.65 163.228 69.5828 163.228C72.5542 163.228 74.2522 163.691 75.9115 164.578ZM78.9554 149.962C79.1483 151.235 79.7272 152.238 80.6147 152.971C81.5023 153.703 82.7372 154.243 84.2807 154.552L84.2807 154.899L79.1483 154.899L79.1483 158.255L77.6047 158.255L77.6047 154.899L63.095 154.899C62.1303 154.899 61.3971 155.092 60.9726 155.439C60.5481 155.786 60.2008 156.442 59.9692 157.368L59.6219 157.368L59.6219 149.962L59.9692 149.962C60.085 150.463 60.2779 150.811 60.6253 151.003C60.9726 151.196 61.4742 151.312 62.1688 151.312L75.5209 151.312C76.4085 151.312 77.1031 151.196 77.5275 151.003C77.952 150.811 78.2993 150.463 78.5695 149.923L78.9554 149.923L78.9554 149.962ZM60.5914 263.745C59.7038 265.056 59.2793 266.599 59.2793 268.373C59.2793 269.762 59.6653 270.957 60.4756 271.883C61.286 272.886 62.4437 273.734 64.0645 274.39L64.1802 274.197C62.984 273.117 62.4051 271.652 62.4051 269.877C62.4051 268.412 62.8296 267.139 63.64 265.982C64.4504 264.863 65.6081 263.976 67.0745 263.32C68.5409 262.665 70.1616 262.356 72.014 262.356L72.0526 262.356L72.0526 274.352L72.9401 274.352C75.024 274.352 76.6833 273.734 77.9568 272.5C79.2302 271.266 79.8477 269.607 79.8477 267.563C79.8477 265.982 79.3846 264.632 78.5356 263.398C77.6866 262.202 76.4904 261.238 74.9468 260.543C73.4032 259.849 71.6667 259.502 69.7372 259.502C67.6533 259.502 65.8396 259.888 64.2574 260.62C62.6752 261.392 61.4404 262.395 60.5914 263.745ZM72.998 262.404C74.5871 262.565 75.7336 263.118 76.7991 263.861C78.0725 264.786 78.69 265.982 78.69 267.486C78.69 268.566 78.4198 269.53 77.7638 270.225C77.185 270.803 76.4518 271.189 75.3713 270.996C73.9434 270.726 73.1331 269.453 73.1331 267.062L72.998 262.404ZM59.2793 227.064C59.2793 225.289 59.7038 223.747 60.5914 222.397C61.479 221.047 62.6752 219.967 64.2574 219.195C65.801 218.424 67.5761 218.038 69.5828 218.038C71.5895 218.038 73.3646 218.424 74.9082 219.195C76.4518 219.967 77.6481 221.008 78.5356 222.397C79.3846 223.747 79.8477 225.328 79.8477 227.064C79.8477 228.838 79.4232 230.419 78.5356 231.769C77.6866 233.119 76.4518 234.161 74.9082 234.932C73.3646 235.703 71.5895 236.089 69.5828 236.089C67.5761 236.089 65.801 235.703 64.2574 234.932C62.7138 234.161 61.479 233.119 60.5914 231.769C59.7038 230.419 59.2793 228.838 59.2793 227.064ZM78.6128 227.064C78.6128 225.482 77.5709 224.248 75.9115 223.361C74.2522 222.474 72.5542 222.011 69.5828 222.011C66.65 222.011 64.8749 222.474 63.1769 223.361C61.479 224.248 60.5142 225.482 60.5142 227.064C60.5142 228.645 61.5176 229.879 63.1769 230.766C64.8749 231.653 66.6114 232.116 69.5828 232.116C72.5542 232.116 74.2522 231.653 75.9115 230.766C77.5323 229.879 78.6128 228.645 78.6128 227.064ZM60.0086 238.79L59.6613 238.79L59.6613 245.077L60.0086 245.077C60.1244 244.576 60.3174 244.228 60.6647 244.036C60.9734 243.843 61.5136 243.727 62.2083 243.727L75.5284 243.727C76.2303 244.244 76.825 244.859 77.2196 245.54C77.6441 246.273 77.8757 247.044 77.8757 247.777C77.8757 250.631 75.9848 252.058 72.1644 252.058L62.2083 252.058C61.5136 252.058 61.012 251.943 60.6647 251.75C60.3174 251.557 60.1244 251.21 60.0086 250.708L59.6613 250.708L59.6613 257.072L60.0086 257.072C60.1244 256.571 60.3174 256.224 60.6647 256.031C60.9734 255.838 61.5136 255.722 62.2083 255.722L73.1291 255.723C75.2516 255.723 76.9109 255.221 78.0686 254.141C79.2263 253.061 79.8051 251.595 79.8051 249.667C79.8051 248.355 79.4192 247.16 78.686 246.041C78.042 245.108 77.3442 244.282 76.3685 243.698L79.6122 243.534L78.9562 238.752L78.6089 238.752C78.3387 239.292 77.9914 239.639 77.567 239.831C77.1425 240.024 76.4478 240.14 75.5603 240.14L62.2083 240.14C61.5136 240.14 61.012 240.024 60.6647 239.831C60.3174 239.639 60.1244 239.292 60.0086 238.79Z" fill="#DDD9D2"/>
</svg>
