<svg width="474" height="564" viewBox="0 0 474 564" fill="none" xmlns="http://www.w3.org/2000/svg">
  <path d="M446.246 281.634C446.246 126.441 346.367 0.956543 223.518 0.956543C100.669 0.956543 0.79 126.441 0.79 281.634C0.79 436.827 100.669 562.311 223.518 562.311C346.367 562.311 446.246 436.827 446.246 281.634Z" stroke="url(#paint0_radial_738_2016)" stroke-width="1.58"/>
  <path d="M446.21 281.514C446.21 134.864 351.713 16.3041 235.5 16.3041C119.287 16.3041 24.79 134.864 24.79 281.514C24.79 428.164 119.287 546.724 235.5 546.724C351.713 546.724 446.21 428.164 446.21 281.514Z" stroke="url(#paint1_radial_738_2016)" stroke-width="1.58"/>
  <path d="M446.21 281.014C446.21 142.371 357.084 30.3043 247.5 30.3043C137.916 30.3043 48.79 142.371 48.79 281.014C48.79 419.658 137.916 531.724 247.5 531.724C357.084 531.724 446.21 419.658 446.21 281.014Z" stroke="url(#paint2_radial_738_2016)" stroke-width="1.58"/>
  <path d="M446.21 281.014C446.21 150.099 362.453 44.3042 259.5 44.3042C156.546 44.3042 72.7895 150.099 72.7895 281.014C72.7895 411.93 156.546 517.724 259.5 517.724C362.453 517.724 446.21 411.93 446.21 281.014Z" stroke="url(#paint3_radial_738_2016)" stroke-width="1.58"/>
  <path d="M446.21 280.514C446.21 159.272 367.832 61.3042 271.5 61.3042C175.168 61.3042 96.79 159.272 96.79 280.514C96.79 401.756 175.168 499.724 271.5 499.724C367.832 499.724 446.21 401.756 446.21 280.514Z" stroke="url(#paint4_radial_738_2016)" stroke-width="1.58"/>
  <path d="M446.21 281.514C446.21 166.331 373.193 73.3042 283.5 73.3042C193.807 73.3042 120.79 166.331 120.79 281.514C120.79 396.697 193.807 489.724 283.5 489.724C373.193 489.724 446.21 396.697 446.21 281.514Z" stroke="url(#paint5_radial_738_2016)" stroke-width="1.58"/>
  <path d="M446.21 281.514C446.21 173.502 378.558 86.3044 295.5 86.3044C212.442 86.3044 144.79 173.502 144.79 281.514C144.79 389.527 212.442 476.724 295.5 476.724C378.558 476.724 446.21 389.527 446.21 281.514Z" stroke="url(#paint6_radial_738_2016)" stroke-width="1.58"/>
  <path d="M419.714 269.514C439.305 270.005 446.159 289.834 445.937 298.7C446.159 289.834 453.998 270.373 473.588 270.864" stroke="#F0EA4E" stroke-width="1.58"/>
  <defs>
    <radialGradient id="paint0_radial_738_2016" cx="0" cy="0" r="1" gradientUnits="userSpaceOnUse" gradientTransform="translate(223.518 563.101) rotate(-90) scale(624.935 846.727)">
      <stop stop-color="#F7F116"/>
      <stop offset="0.364583" stop-color="#EDE860"/>
      <stop offset="0.952271" stop-color="#332F2D"/>
    </radialGradient>
    <radialGradient id="paint1_radial_738_2016" cx="0" cy="0" r="1" gradientUnits="userSpaceOnUse" gradientTransform="translate(235.5 547.514) rotate(-90) scale(590.593 801.2)">
      <stop stop-color="#F7F116"/>
      <stop offset="0.364583" stop-color="#EDE860"/>
      <stop offset="0.952271" stop-color="#332F2D"/>
    </radialGradient>
    <radialGradient id="paint2_radial_738_2016" cx="0" cy="0" r="1" gradientUnits="userSpaceOnUse" gradientTransform="translate(247.5 532.514) rotate(-90) scale(558.399 755.742)">
      <stop stop-color="#F7F116"/>
      <stop offset="0.364583" stop-color="#EDE860"/>
      <stop offset="0.952271" stop-color="#332F2D"/>
    </radialGradient>
    <radialGradient id="paint3_radial_738_2016" cx="0" cy="0" r="1" gradientUnits="userSpaceOnUse" gradientTransform="translate(259.5 518.514) rotate(-90) scale(527.315 710.284)">
      <stop stop-color="#F7F116"/>
      <stop offset="0.364583" stop-color="#EDE860"/>
      <stop offset="0.952271" stop-color="#332F2D"/>
    </radialGradient>
    <radialGradient id="paint4_radial_738_2016" cx="0" cy="0" r="1" gradientUnits="userSpaceOnUse" gradientTransform="translate(271.5 500.514) rotate(-90) scale(488.46 664.825)">
      <stop stop-color="#F7F116"/>
      <stop offset="0.364583" stop-color="#EDE860"/>
      <stop offset="0.952271" stop-color="#332F2D"/>
    </radialGradient>
    <radialGradient id="paint5_radial_738_2016" cx="0" cy="0" r="1" gradientUnits="userSpaceOnUse" gradientTransform="translate(283.5 490.514) rotate(-90) scale(464.037 619.367)">
      <stop stop-color="#F7F116"/>
      <stop offset="0.364583" stop-color="#EDE860"/>
      <stop offset="0.952271" stop-color="#332F2D"/>
    </radialGradient>
    <radialGradient id="paint6_radial_738_2016" cx="0" cy="0" r="1" gradientUnits="userSpaceOnUse" gradientTransform="translate(295.5 477.514) rotate(-90) scale(435.174 573.909)">
      <stop stop-color="#F7F116"/>
      <stop offset="0.364583" stop-color="#EDE860"/>
      <stop offset="0.952271" stop-color="#332F2D"/>
    </radialGradient>
  </defs>
</svg>